<svg aria-hidden="true" style="position: absolute; width: 0; height: 0; overflow: hidden;" version="1.1" xmlns="http://www.w3.org/2000/svg" xmlns:xlink="http://www.w3.org/1999/xlink">
<defs>
<symbol id="icon-account" viewBox="0 0 32 32">
<title>account</title>
<path d="M16 5.333c2.946 0 5.333 2.388 5.333 5.333v0c0 2.946-2.388 5.333-5.333 5.333v0c-2.946 0-5.333-2.388-5.333-5.333v0c0-2.946 2.388-5.333 5.333-5.333v0zM16 18.667c5.893 0 10.667 2.387 10.667 5.333v2.667h-21.333v-2.667c0-2.947 4.773-5.333 10.667-5.333z"></path>
</symbol>
<symbol id="icon-arrow-right" viewBox="0 0 32 32">
<title>arrow-right</title>
<path d="M5.333 14.667v2.667h16l-7.333 7.333 1.893 1.893 10.56-10.56-10.56-10.56-1.893 1.893 7.333 7.333h-16z"></path>
</symbol>
<symbol id="icon-camera" viewBox="0 0 32 32">
<title>camera</title>
<path d="M27 17.047l-5-2.003v-4.008l5-2.004c0.553 0 1 0.449 1 1.002v6.012c0 0.553-0.447 1.001-1 1.001zM17.5 10.033c-2.485 0-4.5-2.019-4.5-4.509s2.015-4.509 4.5-4.509 4.5 2.019 4.5 4.509c0 2.491-2.015 4.509-4.5 4.509zM8.5 10.033c-2.485 0-4.5-2.019-4.5-4.509s2.015-4.509 4.5-4.509 4.5 2.019 4.5 4.509c0 2.491-2.015 4.509-4.5 4.509zM21 10.033v9.018h-5.582c-0.052 0.832-0.416 1.549-0.957 1.955h0.564l3.989 8.996h-0.994l-1.33-3h-2.66v4.998h-0.997v-4.998h-2.702l-1.351 3h-0.995l4.052-8.996h0.377c-0.541-0.406-0.905-1.123-0.957-1.955h-6.457v-9.018h16zM13.032 21.316c-0.041-0.010-0.079-0.031-0.119-0.045l-2.132 4.732h2.251v-4.687zM14.029 21.244v4.76h2.217l-2.126-4.795c-0.029 0.014-0.059 0.023-0.091 0.035z"></path>
</symbol>
<symbol id="icon-chevron-left" viewBox="0 0 32 32">
<title>chevron-left</title>
<path d="M20.547 22.107l-6.107-6.107 6.107-6.12-1.88-1.88-8 8 8 8 1.88-1.893z"></path>
</symbol>
<symbol id="icon-chevron-right" viewBox="0 0 32 32">
<title>chevron-right</title>
<path d="M11.453 22.107l6.107-6.107-6.107-6.12 1.88-1.88 8 8-8 8-1.88-1.893z"></path>
</symbol>
<symbol id="icon-clock" viewBox="0 0 32 32">
<title>clock</title>
<path d="M16 2.667c-7.364 0-13.333 5.97-13.333 13.333v0c0 7.364 5.97 13.333 13.333 13.333v0c7.364 0 13.333-5.97 13.333-13.333v0c0-7.364-5.97-13.333-13.333-13.333v0zM21.6 21.6l-6.933-4.267v-8h2v6.933l6 3.6-1.067 1.733z"></path>
</symbol>
<symbol id="icon-film" viewBox="0 0 32 32">
<title>film</title>
<path d="M29 0h-26c-0.552 0-1 0.448-1 1v30c0 0.553 0.448 1 1 1h26c0.553 0 1-0.447 1-1v-30c0-0.552-0.447-1-1-1zM5 28c-0.552 0-1-0.447-1-1s0.448-1 1-1 1 0.447 1 1-0.448 1-1 1zM5 24c-0.552 0-1-0.447-1-1s0.448-1 1-1 1 0.447 1 1-0.448 1-1 1zM5 20c-0.552 0-1-0.447-1-1s0.448-1 1-1 1 0.447 1 1-0.448 1-1 1zM5 16c-0.552 0-1-0.448-1-1s0.448-1 1-1 1 0.448 1 1-0.448 1-1 1zM5 12c-0.552 0-1-0.448-1-1s0.448-1 1-1 1 0.448 1 1-0.448 1-1 1zM5 8c-0.552 0-1-0.448-1-1s0.448-1 1-1 1 0.448 1 1-0.448 1-1 1zM5 4c-0.552 0-1-0.448-1-1s0.448-1 1-1 1 0.448 1 1-0.448 1-1 1zM24 29c0 0.553-0.447 1-1 1h-14c-0.552 0-1-0.447-1-1v-10c0-0.553 0.448-1 1-1h14c0.553 0 1 0.447 1 1v10zM24 15c0 0.552-0.447 1-1 1h-14c-0.552 0-1-0.448-1-1v-12c0-0.552 0.448-1 1-1h14c0.553 0 1 0.448 1 1v12zM27 28c-0.553 0-1-0.447-1-1s0.447-1 1-1 1 0.447 1 1-0.447 1-1 1zM27 24c-0.553 0-1-0.447-1-1s0.447-1 1-1 1 0.447 1 1-0.447 1-1 1zM27 20c-0.553 0-1-0.447-1-1s0.447-1 1-1 1 0.447 1 1-0.447 1-1 1zM27 16c-0.553 0-1-0.448-1-1s0.447-1 1-1 1 0.448 1 1-0.447 1-1 1zM27 12c-0.553 0-1-0.448-1-1s0.447-1 1-1 1 0.448 1 1-0.447 1-1 1zM27 8c-0.553 0-1-0.448-1-1s0.447-1 1-1 1 0.448 1 1-0.447 1-1 1zM27 4c-0.553 0-1-0.448-1-1s0.447-1 1-1 1 0.448 1 1-0.447 1-1 1z"></path>
</symbol>
<symbol id="icon-format-list-bulleted-square" viewBox="0 0 32 32">
<title>format-list-bulleted-square</title>
<path d="M4 17.333h2.667v-2.667h-2.667v2.667zM4 22.667h2.667v-2.667h-2.667v2.667zM4 12h2.667v-2.667h-2.667v2.667zM9.333 17.333h18.667v-2.667h-18.667v2.667zM9.333 22.667h18.667v-2.667h-18.667v2.667zM9.333 9.333v2.667h18.667v-2.667h-18.667z"></path>
</symbol>
<symbol id="icon-github-circle" viewBox="0 0 32 32">
<title>github-circle</title>
<path d="M16 2.667c-7.364 0-13.333 5.97-13.333 13.333v0c0 5.893 3.827 10.893 9.12 12.667 0.667 0.107 0.88-0.307 0.88-0.667 0-0.307 0-1.147 0-2.253-3.693 0.8-4.48-1.787-4.48-1.787-0.613-1.547-1.48-1.96-1.48-1.96-1.213-0.827 0.093-0.8 0.093-0.8 1.333 0.093 2.040 1.373 2.040 1.373 1.16 2.027 3.12 1.427 3.88 1.107 0.12-0.867 0.467-1.453 0.84-1.787-2.96-0.333-6.067-1.48-6.067-6.56 0-1.48 0.507-2.667 1.373-3.613-0.133-0.333-0.6-1.72 0.133-3.52 0 0 1.12-0.36 3.667 1.36 1.053-0.293 2.2-0.44 3.333-0.44s2.28 0.147 3.333 0.44c2.547-1.72 3.667-1.36 3.667-1.36 0.733 1.8 0.267 3.187 0.133 3.52 0.867 0.947 1.373 2.133 1.373 3.613 0 5.093-3.12 6.213-6.093 6.547 0.48 0.413 0.92 1.227 0.92 2.467 0 1.787 0 3.227 0 3.653 0 0.36 0.213 0.787 0.893 0.667 5.293-1.787 9.107-6.773 9.107-12.667 0-7.364-5.97-13.333-13.333-13.333v0z"></path>
</symbol>
<symbol id="icon-heart" viewBox="0 0 32 32">
<title>heart</title>
<path d="M16 28.467l-1.933-1.76c-6.867-6.227-11.4-10.347-11.4-15.373 0-4.12 3.227-7.333 7.333-7.333 2.32 0 4.547 1.080 6 2.773 1.453-1.693 3.68-2.773 6-2.773 4.107 0 7.333 3.213 7.333 7.333 0 5.027-4.533 9.147-11.4 15.373l-1.933 1.76z"></path>
</symbol>
<symbol id="icon-login-variant" viewBox="0 0 32 32">
<title>login-variant</title>
<path d="M25.333 4h-18.667c-1.48 0-2.667 1.187-2.667 2.667v5.333h2.667v-5.333h18.667v18.667h-18.667v-5.333h-2.667v5.333c0 1.473 1.194 2.667 2.667 2.667v0h18.667c1.473 0 2.667-1.194 2.667-2.667v0-18.667c0-1.48-1.2-2.667-2.667-2.667zM13.44 20.773l1.893 1.893 6.667-6.667-6.667-6.667-1.893 1.88 3.453 3.453h-12.893v2.667h12.893l-3.453 3.44z"></path>
</symbol>
<symbol id="icon-magnify" viewBox="0 0 32 32">
<title>magnify</title>
<path d="M12.667 4c4.786 0 8.667 3.88 8.667 8.667v0c0 2.147-0.787 4.12-2.080 5.64l0.36 0.36h1.053l6.667 6.667-2 2-6.667-6.667v-1.053l-0.36-0.36c-1.52 1.293-3.493 2.080-5.64 2.080-4.786 0-8.667-3.88-8.667-8.667v0c0-4.786 3.88-8.667 8.667-8.667v0zM12.667 6.667c-3.333 0-6 2.667-6 6s2.667 6 6 6c3.333 0 6-2.667 6-6s-2.667-6-6-6z"></path>
</symbol>
<symbol id="icon-movie" viewBox="0 0 32 32">
<title>movie</title>
<path d="M24 5.333l2.667 5.333h-4l-2.667-5.333h-2.667l2.667 5.333h-4l-2.667-5.333h-2.667l2.667 5.333h-4l-2.667-5.333h-1.333c-1.473 0-2.667 1.194-2.667 2.667v0 16c0 1.473 1.194 2.667 2.667 2.667v0h21.333c1.473 0 2.667-1.194 2.667-2.667v0-18.667h-5.333z"></path>
</symbol>
<symbol id="icon-sort-variant" viewBox="0 0 32 32">
<title>sort-variant</title>
<path d="M4 17.333h16v-2.667h-16zM4 8v2.667h24v-2.667zM4 24h8v-2.667h-8v2.667z"></path>
</symbol>
</defs>
</svg>
